<?xml version="1.0" encoding="UTF-8" standalone="no"?><!DOCTYPE svg PUBLIC "-//W3C//DTD SVG 1.1//EN" "http://www.w3.org/Graphics/SVG/1.1/DTD/svg11.dtd"><svg width="100%" height="100%" viewBox="0 0 4267 4267" version="1.1" xmlns="http://www.w3.org/2000/svg" xmlns:xlink="http://www.w3.org/1999/xlink" xml:space="preserve" xmlns:serif="http://www.serif.com/" style="fill-rule:evenodd;clip-rule:evenodd;stroke-linejoin:round;stroke-miterlimit:2;"><path id="Path-0" serif:id="Path 0" d="M1546.299,832.921c45.175,-0.24 87.999,2.398 115.095,7.097c23.738,4.076 55.054,10.886 69.536,15.106c14.483,4.22 49.059,17.072 76.73,28.582c27.671,11.461 73.037,33.905 100.708,49.778c27.671,15.921 76.634,47.764 108.764,70.735c32.083,23.019 80.662,60.377 107.901,83.108c27.191,22.683 75.387,64.549 107.038,93.035c31.651,28.486 121.185,111.498 199.018,184.487c77.833,72.989 167.367,156.097 199.018,184.679c31.651,28.534 76.969,67.043 100.708,85.458c23.738,18.463 65.844,48.532 93.514,66.899c27.671,18.319 78.408,47.189 112.697,64.165c34.289,16.928 82.293,37.214 106.702,45.031c24.41,7.817 65.412,17.696 91.117,21.916c33.857,5.563 64.597,7.002 111.498,5.179c44.024,-1.678 77.785,-5.851 105.503,-12.996c22.395,-5.803 55.869,-17.408 74.332,-25.896c18.463,-8.44 45.462,-22.971 59.945,-32.274c14.483,-9.256 36.063,-21.82 47.956,-27.815c16.833,-8.536 235.004,157.775 228.53,173.313c-5.083,12.181 -27.403,31.267 -46.297,48.484c-17.168,15.586 -52.752,42.873 -79.127,60.569c-26.376,17.696 -64.165,39.899 -83.923,49.347c-19.806,9.399 -55.389,23.93 -79.127,32.274c-23.738,8.344 -70.16,20.861 -103.106,27.815c-53.711,11.318 -70.399,12.66 -160.653,12.708c-75.051,0.096 -111.69,-1.966 -143.868,-8.057c-23.738,-4.508 -63.638,-13.667 -88.719,-20.381c-25.081,-6.762 -64.98,-19.95 -88.719,-29.301c-23.738,-9.351 -70.16,-31.028 -103.106,-48.148c-32.994,-17.12 -86.944,-48.963 -119.89,-70.783c-32.994,-21.868 -81.525,-56.492 -107.901,-77.017c-26.376,-20.525 -76.969,-62.343 -112.457,-92.939c-35.44,-30.644 -94.809,-83.731 -131.879,-118.02c-37.07,-34.289 -110.395,-101.187 -162.907,-148.664c-52.512,-47.476 -124.782,-111.977 -160.605,-143.389c-35.871,-31.363 -88.911,-74.763 -117.924,-96.344c-29.013,-21.628 -71.071,-50.306 -93.514,-63.782c-22.443,-13.428 -55.341,-31.028 -73.133,-39.084c-17.792,-8.057 -48.004,-19.087 -67.138,-24.458c-19.134,-5.371 -56.348,-11.078 -82.724,-12.66c-35.296,-2.11 -58.698,-0.767 -88.719,5.179c-24.841,4.892 -57.643,16.113 -83.923,28.726c-23.738,11.414 -71.215,40.811 -105.503,65.412c-34.289,24.601 -69.344,47.572 -77.929,51.025c-8.584,3.501 -212.062,-134.661 -212.11,-145.882c-0.048,-11.222 3.693,-28.294 8.296,-37.933c4.604,-9.639 23.498,-31.747 41.962,-49.155c18.511,-17.36 49.778,-44.743 69.536,-60.76c19.806,-16.017 55.389,-42.201 79.127,-58.171c23.738,-16.017 60.425,-37.693 81.525,-48.244c21.101,-10.55 57.787,-26.136 81.525,-34.576c23.738,-8.488 61.48,-19.374 83.923,-24.218c28.534,-6.138 62.295,-8.872 112.697,-9.16Z" style="fill:#d1ff03;stroke:#d1ff03;stroke-width:4.17px;"/><path id="Path-01" serif:id="Path 0" d="M2682.858,1093.034c29.973,1.007 44.12,4.124 64.741,14.147c14.483,7.05 34.768,20.957 45.031,30.98c10.263,9.975 23.786,26.28 29.973,36.159c6.234,9.879 14.77,31.459 19.039,47.956c5.227,20.333 6.618,37.693 4.364,53.951c-1.822,13.188 -7.913,35.871 -13.476,50.354c-6.762,17.504 -19.087,35.392 -36.734,53.183c-18.751,18.847 -34.768,29.877 -54.19,37.166c-15.154,5.707 -39.995,11.701 -55.149,13.38c-19.374,2.11 -36.159,0.575 -56.348,-5.131c-15.825,-4.46 -39.564,-15.154 -52.752,-23.69c-15.394,-10.023 -31.315,-26.616 -44.503,-46.469c-12.996,-19.518 -22.395,-40.475 -25.752,-57.212c-2.877,-14.483 -3.836,-39.324 -2.11,-55.149c1.678,-15.825 8.009,-39.564 14.099,-52.752c6.042,-13.188 18.415,-32.322 27.431,-42.585c9.064,-10.215 26.136,-24.17 38.029,-30.932c11.893,-6.81 30.212,-15.154 40.763,-18.559c10.982,-3.501 35.631,-5.563 57.547,-4.796Z" style="fill:#07bcc8;stroke:#07bcc8;stroke-width:4.17px;"/><path id="Path-02" serif:id="Path 0" d="M2246.457,1821.055c18.367,-0.192 35.727,2.877 47.956,8.488c10.55,4.844 29.973,20.477 43.16,34.72c13.188,14.243 71.694,80.902 129.961,148.136c58.315,67.234 144.635,163.242 191.824,213.309c47.237,50.066 145.019,151.493 217.337,225.393c72.27,73.9 233.066,235.272 357.273,358.663c124.158,123.391 232.779,227.504 241.363,231.388c8.584,3.884 23.69,7.002 33.569,6.954c9.879,-0.048 26.616,-4.076 37.166,-8.968c10.55,-4.844 40.763,-24.554 67.138,-43.784c26.376,-19.23 56.588,-38.892 67.138,-43.688c11.893,-5.419 29.559,-15.584 42.422,-2.138c19.278,20.152 116.601,134.257 101.303,151.426c-15.298,17.168 -96.392,105.599 -180.267,196.62c-83.827,91.021 -159.022,169.237 -167.031,173.841c-8.057,4.604 -19.998,8.392 -26.616,8.392c-6.57,0 -21.149,-4.604 -32.37,-10.263c-11.222,-5.659 -33.329,-20.094 -49.155,-32.131c-15.825,-12.037 -48.196,-38.125 -71.934,-57.979c-23.738,-19.902 -88.191,-80.422 -143.245,-134.517c-55.006,-54.142 -157.68,-158.83 -228.079,-232.683c-70.447,-73.852 -170.1,-179.595 -221.461,-234.985c-51.361,-55.389 -165.065,-178.924 -252.633,-274.548c-87.616,-95.624 -164.106,-177.15 -170.052,-181.178c-5.947,-4.028 -18.271,-6.714 -27.431,-5.995c-13.14,1.055 -19.47,5.323 -30.404,20.525c-7.577,10.55 -32.754,48.34 -55.965,83.923c-23.211,35.583 -59.322,85.218 -80.326,110.299c-20.957,25.081 -59.513,64.549 -85.65,87.76c-26.136,23.259 -69.105,56.972 -95.481,74.955c-26.376,17.984 -69.536,43.832 -95.912,57.403c-26.376,13.572 -67.378,32.131 -91.117,41.194c-23.738,9.112 -62.583,22.108 -86.321,28.918c-23.738,6.81 -68.002,16.641 -98.31,21.82c-30.308,5.227 -88.623,11.461 -129.481,13.859c-40.859,2.398 -81.861,3.597 -91.117,2.59c-9.256,-1.007 -38.365,-3.021 -64.741,-4.508c-26.376,-1.487 -68.433,-5.947 -93.514,-9.927c-25.081,-4.028 -69.297,-13.907 -98.31,-21.964c-29.013,-8.057 -78.648,-25.704 -110.299,-39.228c-31.651,-13.476 -75.291,-34.384 -96.967,-46.374c-21.724,-12.037 -59.322,-35.871 -83.587,-53.039c-24.314,-17.168 -68.625,-52.224 -98.454,-77.929c-29.877,-25.704 -63.446,-52.608 -74.668,-59.753c-14.099,-9.016 -26.28,-12.9 -39.564,-12.517c-12.996,0.288 -36.207,9.016 -71.934,26.951c-29.013,14.579 -64.597,30.212 -79.127,34.816c-16.976,5.371 -35.775,7.577 -52.752,6.282c-14.914,-1.151 -94.569,-97.782 -86.896,-109.676c7.625,-11.893 63.254,-70.304 123.535,-129.817c60.281,-59.561 131.208,-128.33 157.584,-152.836c26.376,-24.506 56.588,-48.915 67.138,-54.19c12.948,-6.474 25.417,-8.968 38.365,-7.625c10.55,1.103 25.129,5.707 32.37,10.215c7.241,4.46 18.655,16.257 25.321,26.136c6.666,9.879 22.683,34.145 35.583,53.951c12.9,19.758 39.276,53.039 58.602,73.852c19.326,20.861 56.732,53.903 83.108,73.469c26.376,19.518 70.639,47.045 98.31,61.096c27.671,14.099 69.776,32.37 93.514,40.667c23.738,8.296 63.638,19.47 88.719,24.793c29.541,6.282 73.373,10.646 124.686,12.469c50.977,1.774 96.2,0.623 127.084,-3.213c26.376,-3.261 72.797,-13.428 103.106,-22.635c30.308,-9.208 75.627,-27.287 100.708,-40.187c25.081,-12.948 64.933,-38.125 88.575,-55.965c23.69,-17.84 60.377,-49.778 81.525,-70.975c21.197,-21.149 57.403,-62.151 80.518,-91.117c23.115,-28.918 75.771,-100.084 117.013,-158.111c41.242,-58.027 92.699,-129.242 114.375,-158.255c21.628,-29.013 49.922,-62.055 62.822,-73.421c12.9,-11.366 29.925,-22.491 37.837,-24.745c7.913,-2.254 27.335,-4.22 43.16,-4.412Z" style="fill:#d1ff03;stroke:#d1ff03;stroke-width:4.17px;"/></svg>