<?xml version="1.0" encoding="UTF-8" standalone="no"?><!DOCTYPE svg PUBLIC "-//W3C//DTD SVG 1.1//EN" "http://www.w3.org/Graphics/SVG/1.1/DTD/svg11.dtd"><svg width="100%" height="100%" viewBox="0 0 6400 4267" version="1.1" xmlns="http://www.w3.org/2000/svg" xmlns:xlink="http://www.w3.org/1999/xlink" xml:space="preserve" xmlns:serif="http://www.serif.com/" style="fill-rule:evenodd;clip-rule:evenodd;stroke-linejoin:round;stroke-miterlimit:2;"><path id="Path-0" serif:id="Path 0" d="M1808.667,1636.417c9.125,-6.625 511.583,60.292 524.208,72.75c12.333,12.125 28.708,31.458 36.417,42.917c7.708,11.458 18.958,34.917 25,52.083c7.458,21.125 11.708,43.417 13.167,68.75c1.25,21.708 0,48.875 -2.958,64.583c-2.792,14.875 -12,40.958 -20.417,57.958c-10.958,22.042 -23.042,38.125 -42.417,56.375c-14.875,14.083 -39.792,32.042 -55.375,40c-15.542,7.917 -28.208,14.875 -28.125,15.458c0.083,0.583 17.708,22.125 39.167,47.917c21.458,25.792 61.958,74.042 90.042,107.292c28.042,33.25 -161.833,95.333 -174.792,88.667c-8.5,-4.333 -22.333,-18.583 -33.333,-34.375c-10.375,-14.833 -40.542,-58.875 -67.042,-97.917c-34.458,-50.75 -50.458,-70.958 -56.25,-70.958c-5.542,0 -7.792,2.583 -7.167,8.333c0.458,4.583 -234.917,-219.5 -238.208,-268.75c-3.333,-49.25 -1.917,-251.083 -1.917,-251.083Zm215.167,216.042c1.25,27.292 3.417,66.5 4.833,87.125l2.583,37.5c48.458,-1.792 72.833,-4.333 85.417,-6.833c12.583,-2.5 31.333,-8.75 41.667,-13.917c10.333,-5.125 23.917,-15.25 30.208,-22.417c6.292,-7.208 13.333,-20.583 15.625,-29.75c2.875,-11.542 2.75,-22.083 -0.5,-34.375c-2.75,-10.542 -10.75,-23.833 -19.792,-32.833c-9.75,-9.792 -23.25,-17.542 -38.042,-22c-12.583,-3.75 -45.708,-8.042 -73.583,-9.5l-50.708,-2.625l2.292,49.625Zm574.083,-223c77.917,-0.125 162.292,1.625 187.5,3.875c25.208,2.25 59.917,8 77.083,12.75c17.208,4.792 43.458,14.542 58.333,21.708c16.458,7.917 38.583,23.917 56.25,40.75c19.444,18.5 34.208,37.319 44.292,56.458c8.292,15.833 18.625,39.083 22.917,51.667c5.875,17.375 7.792,35.042 7.792,72.917c0,40.875 -1.708,54.958 -9.292,77.083c-5.125,14.917 -14.625,35.542 -21.167,45.833c-6.5,10.333 -22,28.667 -34.417,40.75c-12.458,12.083 -34.792,28.292 -49.708,36.042c-14.875,7.75 -35.083,16.583 -44.875,19.667c-9.792,3.125 -17.75,7.958 -17.708,10.833c0.042,2.875 10.208,14.125 22.583,25c12.375,10.875 39.125,28.542 59.375,39.25c20.292,10.708 59.375,26.917 86.875,36c27.5,9.083 70.625,20.458 95.833,25.292c25.208,4.833 64.583,10.542 87.5,12.708c22.917,2.125 78.25,3.167 122.917,2.25c44.708,-0.917 98.125,-3.583 118.75,-6c20.625,-2.375 55.333,-7.25 77.083,-10.833c21.792,-3.542 69.262,-10.91 104.167,-21.333c27.208,-8.125 63.5,-21.5 63.5,-21.5c0,0 39.167,174.375 37.5,176.875c-1.708,2.542 -46.292,12.833 -63.5,17.458c-17.167,4.667 -50.917,12.333 -75,17.042c-24.042,4.75 -55.917,10.5 -70.833,12.792c-14.875,2.292 -49.583,6.167 -77.083,8.583c-27.5,2.417 -89.375,4.375 -137.5,4.333c-48.125,0 -107.167,-2.042 -131.25,-4.5c-24.042,-2.458 -66.25,-8.875 -93.75,-14.208c-27.5,-5.333 -72.5,-17.167 -100,-26.292c-27.5,-9.167 -64.042,-23.708 -81.25,-32.333c-17.167,-8.625 -45.292,-25.083 -62.5,-36.625c-17.167,-11.5 -50.917,-40.875 -75,-65.25c-24.042,-24.375 -55,-59.708 -68.75,-78.458c-13.75,-18.792 -27.792,-34.167 -31.25,-34.208c-5.292,-0.042 -5.75,4.917 -3.167,32.25c1.667,17.792 6.375,62.75 10.417,99.875c6.042,55.417 6.375,68.542 1.917,72.917c-4.083,4.083 -28.583,5.375 -100.875,5.375c-79.292,0 -96.542,-1.042 -101.833,-6.25c-4.083,-4.042 -8.5,-23.833 -12.458,-56.25c-3.375,-27.5 -9.875,-91.25 -14.5,-141.667c-4.583,-50.417 -10.292,-121.667 -12.625,-158.333c-2.375,-36.667 -6.167,-111.667 -8.5,-166.667c-2.292,-55 -5.292,-114.042 -6.708,-131.25c-1.417,-17.167 -1,-37.458 0.875,-45.083c1.875,-7.667 7.167,-15.417 11.917,-17.417c4.667,-2 72.208,-3.75 150.125,-3.875Zm64.083,197.625c0.167,9.167 1.25,46.208 2.458,82.292l2.208,65.625c43.625,-0.042 68.458,-2 83.333,-4.333c14.917,-2.375 36.958,-8.917 48.958,-14.542c12.75,-6 26.667,-16.708 33.333,-25.625c8.5,-11.375 11.875,-21.333 13.042,-38.542c1.042,-15.792 -0.625,-27.542 -5.208,-36.75c-3.75,-7.458 -11.917,-18.292 -18.25,-24.042c-6.292,-5.792 -20.833,-13.458 -32.292,-17c-11.458,-3.542 -44.458,-7.542 -73.333,-8.833c-29.542,-1.333 -52.917,-0.75 -53.5,1.375c-0.542,2.042 -0.875,11.208 -0.75,20.375Zm705.708,-197.667c69.083,-0.125 119.417,1.458 125,3.958c5.167,2.292 11.708,8.375 14.542,13.542c2.833,5.125 27.5,67.458 54.833,138.5c27.375,71.042 56.292,145.125 64.292,164.583c8,19.5 29.792,72 48.375,116.667c18.583,44.708 33.833,84.083 33.875,87.5c0.042,3.458 -2.333,8.542 -5.292,11.375c-0.532,0.502 -1.743,1.135 -3.526,1.87c-8.136,3.353 -28.173,8.808 -49.808,13.422c-26.333,5.583 -71.333,13.333 -100,17.208c-32.875,4.458 -95.042,7.833 -168.75,9.25c-76.083,1.417 -135.5,0.417 -170.833,-2.875c-29.792,-2.75 -74.792,-8.75 -100,-13.292c-25.208,-4.542 -47.708,-10.042 -50,-12.25c-2.75,-2.667 4.75,-31.833 22.125,-86.25c14.5,-45.208 42,-130.958 61.125,-190.542c19.167,-59.583 45.292,-141.125 58.083,-181.25c12.792,-40.083 24.917,-75.167 26.917,-77.917c2,-2.75 8.083,-6.833 13.542,-9.125c5.625,-2.333 59.625,-4.208 125.5,-4.375Zm-26.042,322.667c-16.042,48.125 -29.167,90.792 -29.167,94.792c0,6.667 6.25,7.292 72.917,7.292c67.292,0 72.792,-0.542 71.333,-7.292c-0.833,-4 -17.917,-47.583 -37.917,-96.875c-19.958,-49.25 -37.583,-91.292 -39.083,-93.417c-1.542,-2.083 -4.167,-1.167 -5.833,2.083c-1.708,3.25 -16.208,45.292 -32.25,93.417Zm483.333,-322.625c44.708,-0.125 87.833,1.5 95.833,3.667c12.333,3.25 21.25,12.875 57.25,61.417c23.458,31.667 76.542,103.5 117.958,159.625c41.417,56.167 77.375,103.042 79.875,104.167c3.25,1.458 3.792,-4.208 1.833,-18.75c-1.542,-11.458 -4.625,-40.5 -6.875,-64.583c-2.208,-24.042 -7.792,-80.292 -12.375,-125c-4.583,-44.667 -8.375,-86.417 -8.417,-92.708c-0.042,-6.292 3.667,-15.208 8.25,-19.792c7.875,-7.833 13.917,-8.333 104.167,-8.333c90.292,0 96.333,0.5 104.167,8.333c4.583,4.583 8.375,10.667 8.375,13.542c0,2.875 2.792,55.833 6.208,117.708c3.417,61.875 9.083,150 12.625,195.833c3.542,45.833 13.042,149.917 21.125,231.25c13.458,135.375 14.125,148.458 8.042,154.167c-5.5,5.167 -22,6.25 -93.167,6.25c-75.292,0 -87.958,-0.917 -97.75,-7.292c-6.208,-4 -52.792,-63.083 -103.5,-131.25c-50.708,-68.167 -109.292,-146.75 -130.208,-174.667c-20.875,-27.875 -39.375,-49.917 -41.125,-48.958c-1.708,0.958 -2.167,5.958 -1,11.125c1.167,5.167 10.458,83.458 20.708,173.958c16.5,146.25 17.875,165.292 12.292,170.833c-5,5.042 -21.958,6.5 -86.292,7.583c-44.042,0.708 -84.292,0.25 -89.458,-1.042c-5.125,-1.292 -12.042,-6.583 -15.333,-11.75c-3.292,-5.208 -10.792,-45.625 -16.792,-90.625c-5.958,-44.667 -14.5,-108.417 -18.958,-141.667c-4.5,-33.208 -11.875,-94.167 -16.417,-135.417c-4.542,-41.25 -11.083,-108.75 -14.458,-150c-3.417,-41.25 -7.5,-95.625 -9.042,-120.833c-1.583,-25.208 -1.333,-51.083 0.542,-57.458c1.917,-6.417 7.333,-13.333 12.083,-15.375c4.708,-2.042 45.167,-3.833 89.833,-3.958Zm736.625,0.917c88.458,0.75 106,1.875 109.333,7.125c2.5,3.875 2.833,50.042 0.875,121.875c-1.667,63.625 -1.667,115.625 0.042,115.625c1.75,0 20.292,-24.833 41.292,-55.208c21,-30.375 58.25,-83.333 82.75,-117.708c25.917,-36.292 49.208,-64.667 55.583,-67.708c7.875,-3.708 41.417,-5.25 118.292,-5.375c99.708,-0.167 108.042,0.375 117.708,7.833c8.542,6.583 9.667,9.625 6.25,16.75c-2.292,4.833 -17.292,25.917 -33.333,46.917c-16.042,21 -64.792,83.958 -108.333,139.958c-43.542,55.958 -81.458,104.917 -84.25,108.792c-4.333,6 1.625,15.375 41.667,65.583c25.708,32.25 77.708,96.5 115.5,142.833c42.792,52.458 69.75,82.25 71.375,78.917c1.458,-2.917 18,-61.583 36.792,-130.333c18.833,-68.75 54.708,-197.167 79.75,-285.417c25.083,-88.208 47.875,-165.833 50.708,-172.417c2.833,-6.625 8.417,-13.625 12.417,-15.625c4.042,-2 65.417,-3.625 136.458,-3.625c128.333,0 129.25,0.083 138.75,9.375c5.25,5.167 23.292,43.958 40.208,86.458c16.833,42.417 42.667,106.167 57.375,141.667c14.75,35.542 32.083,76.792 38.542,91.667c6.5,14.917 27.167,62.708 46.042,106.25c18.833,43.542 56.25,127.917 83.167,187.5c26.875,59.583 50.125,112.542 51.583,117.708c1.958,6.917 0.5,10.5 -5.667,13.542c-4.833,2.417 -50,4.167 -108.333,4.167c-76.708,0 -102.667,-1.333 -111.458,-5.75c-6.292,-3.167 -14,-11.125 -17.083,-17.708c-3.125,-6.583 -11.25,-27.875 -18.083,-47.375c-6.875,-19.458 -13.708,-36.792 -15.208,-38.5c-1.5,-1.708 -47.75,-9.667 -102.75,-17.708c-55,-8 -115.333,-16 -168.25,-20.875l-4.625,12.5c-2.542,6.875 -8.75,31.208 -13.792,54.083c-7.833,35.5 -10.667,42.292 -19.583,46.792c-7.667,3.875 -39.625,5.167 -120.833,4.917c-60.708,-0.208 -142.292,-1.625 -181.25,-3.167c-49.375,-1.958 -74.542,-4.667 -83.083,-8.958c-7.25,-3.667 -45.208,-47.792 -93.042,-108.25c-44.417,-56.125 -83.458,-105.833 -86.75,-110.417c-4.792,-6.667 -7.375,-7.417 -13.208,-3.667c-3.958,2.583 -10.708,9.125 -15,14.583c-7.542,9.708 -7.5,12.208 2.083,108.75c8.083,81 8.875,99.792 4.417,104.167c-3.917,3.875 -28.333,5.708 -89.583,6.708c-46.292,0.792 -90.708,-0.292 -98.75,-2.292c-9.125,-2.333 -16.375,-7.542 -19.333,-13.917c-2.667,-5.583 -10.625,-64.542 -17.792,-131c-7.125,-66.458 -13.875,-128.333 -15.042,-137.5c-1.125,-9.167 -4.75,-54.167 -8.042,-100c-3.333,-45.833 -8.333,-136.75 -11.125,-202.083c-2.917,-67.333 -3.583,-121.958 -1.542,-126.125c1.958,-4.083 7.458,-9.167 12.208,-11.292c4.792,-2.208 55.167,-3.542 113.958,-3.042Zm790.542,463.375c-4.375,7.25 171.708,8.833 172.833,7.875c1.167,-0.917 -2,-11.5 -6.958,-23.542c-5,-12 -22.375,-52.75 -38.625,-90.583c-16.25,-37.792 -33.292,-76.708 -37.833,-86.458c-4.542,-9.75 -9.792,-17.708 -11.625,-17.708c-1.875,0 -17.125,37.958 -33.917,84.375c-16.75,46.417 -41.083,121.458 -43.875,126.042Z" style="fill:#07bcc8;stroke:#07bcc8;stroke-width:4.17px;"/><path id="Path-01" serif:id="Path 0" d="M1048.536,958.58c27.954,-0.148 54.454,1.484 71.221,4.392c14.689,2.522 34.067,6.736 43.029,9.348c8.962,2.611 30.358,10.564 47.48,17.686c17.123,7.092 45.195,20.98 62.318,30.803c17.123,9.852 47.421,29.557 67.303,43.771c19.853,14.244 49.914,37.361 66.769,51.427c16.826,14.036 46.649,39.943 66.235,57.57c19.586,17.627 74.989,68.995 123.152,114.161c48.163,45.166 103.567,96.593 123.152,114.279c19.586,17.657 47.629,41.486 62.318,52.881c14.689,11.425 40.744,30.031 57.867,41.397c17.123,11.336 48.519,29.2 69.737,39.705c21.218,10.475 50.923,23.028 66.027,27.865c15.105,4.837 40.477,10.95 56.383,13.562c20.951,3.442 39.973,4.333 68.995,3.205c27.242,-1.039 48.133,-3.62 65.285,-8.042c13.858,-3.591 34.572,-10.772 45.997,-16.025c11.425,-5.223 28.132,-14.214 37.094,-19.971c8.962,-5.727 22.316,-13.502 29.675,-17.212c10.416,-5.282 145.421,97.631 141.415,107.246c-3.146,7.538 -16.957,19.348 -28.649,30.002c-10.624,9.644 -32.643,26.53 -48.964,37.48c-16.321,10.95 -39.705,24.69 -51.932,30.536c-12.256,5.816 -34.275,14.808 -48.964,19.971c-14.689,5.163 -43.415,12.909 -63.802,17.212c-33.236,7.003 -43.563,7.834 -99.412,7.864c-46.442,0.059 -69.114,-1.217 -89.026,-4.985c-14.689,-2.789 -39.379,-8.457 -54.899,-12.612c-15.52,-4.184 -40.21,-12.345 -54.899,-18.132c-14.689,-5.787 -43.415,-19.2 -63.802,-29.794c-20.417,-10.594 -53.801,-30.298 -74.188,-43.801c-20.417,-13.532 -50.448,-34.957 -66.769,-47.658c-16.321,-12.701 -47.629,-38.578 -69.588,-57.511c-21.93,-18.962 -58.668,-51.813 -81.607,-73.031c-22.939,-21.218 -68.312,-62.615 -100.807,-91.993c-32.494,-29.378 -77.215,-69.292 -99.382,-88.729c-22.197,-19.408 -55.018,-46.264 -72.971,-59.618c-17.954,-13.384 -43.979,-31.129 -57.867,-39.468c-13.888,-8.309 -34.245,-19.2 -45.255,-24.185c-11.01,-4.985 -29.705,-11.811 -41.545,-15.134c-11.84,-3.324 -34.868,-6.855 -51.19,-7.834c-21.841,-1.306 -36.322,-0.475 -54.899,3.205c-15.372,3.027 -35.67,9.971 -51.932,17.775c-14.689,7.063 -44.068,25.254 -65.285,40.477c-21.218,15.223 -42.91,29.438 -48.222,31.574c-5.312,2.166 -131.224,-83.328 -131.254,-90.272c-0.03,-6.944 2.285,-17.508 5.134,-23.473c2.849,-5.965 14.541,-19.645 25.966,-30.417c11.455,-10.742 30.803,-27.687 43.029,-37.599c12.256,-9.912 34.275,-26.114 48.964,-35.996c14.689,-9.912 37.391,-23.325 50.448,-29.853c13.057,-6.529 35.759,-16.173 50.448,-21.396c14.689,-5.253 38.044,-11.989 51.932,-14.986c17.657,-3.798 38.548,-5.49 69.737,-5.668Z" style="fill:#d1ff03;stroke:#d1ff03;stroke-width:4.17px;"/><path id="Path-02" serif:id="Path 0" d="M1751.839,1119.538c18.547,0.623 27.301,2.552 40.062,8.754c8.962,4.362 21.515,12.968 27.865,19.17c6.35,6.172 14.719,16.262 18.547,22.375c3.858,6.113 9.14,19.467 11.781,29.675c3.235,12.582 4.095,23.325 2.7,33.385c-1.128,8.161 -4.896,22.197 -8.339,31.159c-4.184,10.831 -11.811,21.9 -22.731,32.91c-11.603,11.662 -21.515,18.488 -33.533,22.998c-9.377,3.531 -24.749,7.241 -34.127,8.279c-11.989,1.306 -22.375,0.356 -34.868,-3.175c-9.793,-2.76 -24.482,-9.377 -32.643,-14.66c-9.526,-6.202 -19.378,-16.47 -27.539,-28.755c-8.042,-12.078 -13.858,-25.046 -15.936,-35.403c-1.781,-8.962 -2.374,-24.334 -1.306,-34.127c1.039,-9.793 4.956,-24.482 8.725,-32.643c3.739,-8.161 11.395,-20.001 16.974,-26.352c5.609,-6.321 16.173,-14.956 23.532,-19.141c7.359,-4.214 18.695,-9.377 25.224,-11.484c6.796,-2.166 22.049,-3.442 35.61,-2.968Z" style="fill:#07bcc8;stroke:#07bcc8;stroke-width:4.17px;"/><path id="Path-03" serif:id="Path 0" d="M1481.794,1570.038c11.366,-0.119 22.108,1.781 29.675,5.253c6.529,2.997 18.547,12.671 26.708,21.485c8.161,8.814 44.364,50.062 80.42,91.667c36.085,41.605 89.5,101.014 118.701,131.995c29.23,30.981 89.738,93.744 134.488,139.474c44.721,45.73 144.222,145.587 221.08,221.941c76.829,76.354 144.044,140.779 149.355,143.183c5.312,2.404 14.66,4.333 20.773,4.303c6.113,-0.03 16.47,-2.522 22.998,-5.549c6.529,-2.997 25.224,-15.194 41.545,-27.093c16.321,-11.9 35.017,-24.067 41.545,-27.034c7.359,-3.353 18.291,-9.643 26.25,-1.323c11.929,12.47 72.153,83.078 62.686,93.702c-9.466,10.624 -59.647,65.345 -111.549,121.668c-51.872,56.324 -98.403,104.724 -103.359,107.573c-4.985,2.849 -12.375,5.193 -16.47,5.193c-4.066,0 -13.087,-2.849 -20.031,-6.35c-6.944,-3.502 -20.624,-12.434 -30.417,-19.882c-9.793,-7.448 -29.824,-23.592 -44.513,-35.877c-14.689,-12.315 -54.573,-49.765 -88.64,-83.239c-34.037,-33.503 -97.572,-98.284 -141.135,-143.984c-43.593,-45.7 -105.258,-111.134 -137.04,-145.409c-31.782,-34.275 -102.142,-110.718 -156.329,-169.891c-54.217,-59.172 -101.549,-109.62 -105.228,-112.113c-3.68,-2.493 -11.306,-4.155 -16.974,-3.709c-8.131,0.653 -12.048,3.294 -18.814,12.701c-4.689,6.529 -20.268,29.913 -34.631,51.932c-14.363,22.019 -36.708,52.733 -49.706,68.253c-12.968,15.52 -36.827,39.943 -53,54.306c-16.173,14.392 -42.762,35.254 -59.083,46.382c-16.321,11.128 -43.029,27.123 -59.35,35.521c-16.321,8.398 -41.694,19.882 -56.383,25.491c-14.689,5.638 -38.726,13.68 -53.415,17.894c-14.689,4.214 -42.079,10.297 -60.834,13.502c-18.755,3.235 -54.84,7.092 -80.123,8.576c-25.283,1.484 -50.656,2.226 -56.383,1.602c-5.727,-0.623 -23.74,-1.87 -40.062,-2.789c-16.321,-0.92 -42.347,-3.68 -57.867,-6.143c-15.52,-2.493 -42.881,-8.606 -60.834,-13.591c-17.954,-4.985 -48.667,-15.906 -68.253,-24.274c-19.586,-8.339 -46.59,-21.277 -60.003,-28.696c-13.443,-7.448 -36.708,-22.197 -51.724,-32.821c-15.045,-10.624 -42.465,-32.316 -60.923,-48.222c-18.488,-15.906 -39.26,-32.554 -46.204,-36.975c-8.725,-5.579 -16.262,-7.983 -24.482,-7.745c-8.042,0.178 -22.405,5.579 -44.513,16.677c-17.954,9.021 -39.973,18.695 -48.964,21.544c-10.505,3.324 -22.138,4.689 -32.643,3.887c-9.229,-0.712 -58.52,-60.508 -53.772,-67.867c4.718,-7.359 39.142,-43.504 76.443,-80.331c37.302,-36.857 81.191,-79.411 97.513,-94.575c16.321,-15.164 35.017,-30.269 41.545,-33.533c8.012,-4.006 15.728,-5.549 23.74,-4.718c6.529,0.683 15.55,3.531 20.031,6.321c4.481,2.76 11.544,10.06 15.669,16.173c4.125,6.113 14.036,21.129 22.019,33.385c7.983,12.226 24.304,32.821 36.263,45.7c11.959,12.909 35.106,33.355 51.427,45.462c16.321,12.078 43.712,29.111 60.834,37.806c17.123,8.725 43.177,20.031 57.867,25.165c14.689,5.134 39.379,12.048 54.899,15.342c18.28,3.887 45.403,6.588 77.156,7.716c31.545,1.098 59.529,0.386 78.639,-1.988c16.321,-2.018 45.047,-8.309 63.802,-14.007c18.755,-5.698 46.798,-16.885 62.318,-24.868c15.52,-8.012 40.18,-23.592 54.81,-34.631c14.66,-11.039 37.361,-30.803 50.448,-43.919c13.116,-13.087 35.521,-38.459 49.825,-56.383c14.303,-17.894 46.887,-61.932 72.408,-97.839c25.521,-35.907 57.362,-79.975 70.775,-97.928c13.384,-17.954 30.892,-38.4 38.875,-45.433c7.983,-7.033 18.517,-13.918 23.414,-15.312c4.896,-1.395 16.915,-2.611 26.708,-2.73Z" style="fill:#d1ff03;stroke:#d1ff03;stroke-width:4.17px;"/></svg>